<svg width="114" height="56" viewBox="0 0 114 56" fill="none" xmlns="http://www.w3.org/2000/svg">
<path d="M91.5495 30.5566H82.9868C83.1589 31.3558 83.5462 31.9822 84.1701 32.4358C84.7725 32.8894 85.5255 33.1054 86.4291 33.1054C87.6554 33.1054 88.5805 32.6518 89.2045 31.7662L91.1192 32.8894C90.065 34.4662 88.4945 35.2438 86.4076 35.2438C84.6649 35.2438 83.2665 34.7038 82.1692 33.6454C81.0935 32.5654 80.5557 31.2046 80.5557 29.563C80.5557 27.9646 81.0935 26.6254 82.1477 25.5238C83.2019 24.4222 84.5573 23.8822 86.2355 23.8822C87.806 23.8822 89.0969 24.4438 90.1081 25.5454C91.1192 26.647 91.6356 28.0078 91.6356 29.5846C91.6356 29.8654 91.6141 30.1894 91.5495 30.5566ZM82.9653 28.6558H89.2905C89.1399 27.8134 88.7742 27.1438 88.2148 26.6686C87.6769 26.215 87.01 25.999 86.214 25.999C85.3534 25.999 84.6434 26.2366 84.0625 26.7118C83.4816 27.187 83.1159 27.835 82.9653 28.6558Z" fill="#141513"/>
<path d="M76.2694 28.5478C76.7643 28.6558 77.1945 28.7854 77.5603 28.8934C78.0551 29.0662 78.4639 29.2606 78.7866 29.4982C79.6257 30.0814 80.056 30.9022 80.0345 31.9174C80.0345 32.9542 79.6257 33.775 78.8296 34.3582C78.0336 34.9414 77.0224 35.2438 75.8391 35.2438C73.6447 35.2438 72.1817 34.4014 71.4502 32.7166L73.451 31.5502C73.8168 32.587 74.6128 33.1054 75.8391 33.1054C77.0655 33.1054 77.6679 32.695 77.6679 31.8958C77.6679 31.3126 76.9794 30.8374 75.624 30.5134C75.1076 30.3838 74.6774 30.2542 74.3546 30.1462C73.8598 29.9734 73.451 29.779 73.1283 29.5414C72.2893 28.9582 71.859 28.1806 71.8805 27.187C71.8805 26.1934 72.2462 25.3942 72.9992 24.7894C73.7522 24.1846 74.6989 23.8822 75.8176 23.8822C77.6679 23.8822 79.0018 24.6382 79.7978 26.1286L77.84 27.2302C77.4742 26.4094 76.8073 25.999 75.8176 25.999C74.7634 25.999 74.2471 26.3878 74.2471 27.1438C74.2471 27.6838 74.914 28.159 76.2694 28.5478Z" fill="#141513"/>
<path d="M70.1702 34.9631H67.8467L67.865 24.0754H70.1886L70.1702 34.9631Z" fill="#141513"/>
<path d="M53.6154 34.9631H50.754L46.4941 19.8431H49.0974L52.26 31.6583L55.6808 19.8431H57.9613L61.3606 31.6583L63.6863 24.0754H66.2895L62.8666 34.9631H60.0052L56.8211 23.9255L53.6154 34.9631Z" fill="#141513"/>
<path d="M43.0323 25.6966V24.163H45.3558V34.963H43.0323V33.4078C42.1502 34.639 40.9023 35.2438 39.2672 35.2438C37.7828 35.2438 36.5349 34.7038 35.4807 33.6022C34.4265 32.5006 33.9102 31.1614 33.9102 29.563C33.9102 27.9646 34.4265 26.6254 35.4807 25.5238C36.5349 24.4222 37.7828 23.8822 39.2672 23.8822C40.9023 23.8822 42.1502 24.487 43.0323 25.6966ZM39.633 33.019C40.6011 33.019 41.4187 32.695 42.0641 32.047C42.7096 31.3774 43.0323 30.535 43.0323 29.563C43.0323 28.5694 42.7096 27.7486 42.0641 27.1006C41.4187 26.431 40.6011 26.107 39.633 26.107C38.6648 26.107 37.8473 26.431 37.2019 27.1006C36.5564 27.7486 36.2337 28.5694 36.2337 29.563C36.2337 30.535 36.5564 31.3774 37.2019 32.047C37.8473 32.695 38.6648 33.019 39.633 33.019Z" fill="#141513"/>
<path d="M33.4922 24.163V26.4094H30.8244V31.5934C30.8244 32.2198 31.0395 32.6302 31.4913 32.7814C31.814 32.8894 32.481 32.911 33.4922 32.8678V34.963C31.7065 35.179 30.4371 35.0278 29.6626 34.5094C28.8881 33.9694 28.5008 32.9974 28.5008 31.5934V26.4094H26.5215V24.163H28.5008V21.8302L30.8244 21.139V24.163H33.4922Z" fill="#141513"/>
<path d="M23.1036 25.6966V24.163H25.4271V34.963H23.1036V33.4078C22.2215 34.639 20.9736 35.2438 19.3385 35.2438C17.854 35.2438 16.6062 34.7038 15.552 33.6022C14.4978 32.5006 13.9814 31.1614 13.9814 29.563C13.9814 27.9646 14.4978 26.6254 15.552 25.5238C16.6062 24.4222 17.854 23.8822 19.3385 23.8822C20.9736 23.8822 22.2215 24.487 23.1036 25.6966ZM19.7043 33.019C20.6724 33.019 21.49 32.695 22.1354 32.047C22.7808 31.3774 23.1036 30.535 23.1036 29.563C23.1036 28.5694 22.7808 27.7486 22.1354 27.1006C21.49 26.431 20.6724 26.107 19.7043 26.107C18.7361 26.107 17.9186 26.431 17.2732 27.1006C16.6277 27.7486 16.305 28.5694 16.305 29.563C16.305 30.535 16.6277 31.3774 17.2732 32.047C17.9186 32.695 18.7361 33.019 19.7043 33.019Z" fill="#141513"/>
<path d="M0 19.8431H5.91646C7.98185 19.8431 9.703 20.5775 11.0584 22.0247C12.4353 23.4719 13.1238 25.2647 13.1238 27.4031C13.1238 29.5199 12.4353 31.3127 11.0584 32.7815C9.703 34.2287 7.98185 34.9631 5.91646 34.9631H0V19.8431ZM2.47416 32.5871H5.91646C7.33641 32.5871 8.49819 32.0903 9.38028 31.1183C10.2839 30.1463 10.7357 28.8935 10.7357 27.4031C10.7357 25.8911 10.2839 24.6599 9.38028 23.6879C8.49819 22.7159 7.33641 22.2191 5.91646 22.2191H2.47416V32.5871Z" fill="#141513"/>
<path d="M68.9706 19.9158C69.1542 20.774 69.8219 21.4443 70.6766 21.6286C69.8219 21.8129 69.1542 22.4832 68.9706 23.3414C68.7871 22.4832 68.1194 21.8129 67.2646 21.6286C68.1194 21.4443 68.7871 20.774 68.9706 19.9158Z" fill="#141513"/>
<path fill-rule="evenodd" clip-rule="evenodd" d="M110.56 19C110.774 20.0647 111.554 20.8964 112.552 21.125C111.554 21.3536 110.774 22.1853 110.56 23.25C110.346 22.1853 109.566 21.3536 108.568 21.125C109.566 20.8964 110.346 20.0647 110.56 19ZM97.6113 27.5C97.6113 26.6198 98.3249 25.9062 99.2051 25.9062H111.954C112.834 25.9062 113.548 26.6198 113.548 27.5C113.548 28.3802 112.834 29.0938 111.954 29.0938H99.2051C98.3249 29.0938 97.6113 28.3802 97.6113 27.5ZM99.2051 20.0625C98.3249 20.0625 97.6113 20.776 97.6113 21.6562C97.6113 22.5365 98.3249 23.25 99.2051 23.25H104.982C105.862 23.25 106.576 22.5365 106.576 21.6562C106.576 20.776 105.862 20.0625 104.982 20.0625H99.2051ZM97.6113 33.3438C97.6113 32.4635 98.3249 31.75 99.2051 31.75H100.002C100.882 31.75 101.595 32.4635 101.595 33.3438C101.595 34.224 100.882 34.9375 100.002 34.9375H99.2051C98.3249 34.9375 97.6113 34.224 97.6113 33.3438ZM105.181 31.75C104.301 31.75 103.588 32.4635 103.588 33.3438C103.588 34.224 104.301 34.9375 105.181 34.9375H109.962C110.842 34.9375 111.556 34.224 111.556 33.3438C111.556 32.4635 110.842 31.75 109.962 31.75H105.181Z" fill="#3A7326"/>
</svg>
